<?xml version="1.0" encoding="UTF-8" standalone="no"?>
<!-- Created with Inkscape (http://www.inkscape.org/) -->

<svg
   version="1.1"
   id="svg2"
   xml:space="preserve"
   width="1365.3333"
   height="1024"
   viewBox="0 0 1365.3333 1024"
   sodipodi:docname="cb_vector.ai"
   xmlns:inkscape="http://www.inkscape.org/namespaces/inkscape"
   xmlns:sodipodi="http://sodipodi.sourceforge.net/DTD/sodipodi-0.dtd"
   xmlns="http://www.w3.org/2000/svg"
   xmlns:svg="http://www.w3.org/2000/svg"><defs
     id="defs6"><clipPath
       clipPathUnits="userSpaceOnUse"
       id="clipPath16"><path
         d="M 0,768 H 1024 V 0 H 0 Z"
         id="path14" /></clipPath></defs><sodipodi:namedview
     id="namedview4"
     pagecolor="#ffffff"
     bordercolor="#666666"
     borderopacity="1.0"
     inkscape:pageshadow="2"
     inkscape:pageopacity="0.0"
     inkscape:pagecheckerboard="0" /><g
     id="g8"
     inkscape:groupmode="layer"
     inkscape:label="cb_vector"
     transform="matrix(1.3333333,0,0,-1.3333333,0,1024)"><g
       id="g10"><g
         id="g12"
         clip-path="url(#clipPath16)"><g
           id="g18"
           transform="translate(435,463)"><path
             d="m 0,0 h -84.629 c -18.972,0 -36.316,-10.701 -44.801,-27.67 l -95.79,-191.572 c -7.763,-15.527 -6.934,-34.101 2.193,-48.868 9.126,-14.767 25.248,-23.89 42.607,-23.89 H 0 v -15 h -180.42 c -18.661,0 -33.376,6.073 -46.31,19.007 -12.934,12.934 -18.958,27.675 -18.958,46.335 0,10.147 2.27,19.632 6.96,29.011 l 95.771,191.849 C -130.207,4.701 -113.309,15 -84.629,15 H 0 Z m -187.757,1.564 -95.79,-191.913 c -8.153,-16.305 -12.229,-33.387 -12.229,-51.322 0,-32.068 11.209,-59.295 33.628,-81.714 22.419,-22.419 49.66,-33.615 81.728,-33.615 H 50 v 115 h -230.42 l 95.791,192 H 50 V 65 H -84.629 c -47.558,0 -81.932,-21.044 -103.128,-63.436"
             style="fill:#000000;fill-opacity:1;fill-rule:nonzero;stroke:none"
             id="path20" /></g><g
           id="g22"
           transform="translate(857.6343,175.1174)"><path
             d="m 0,0 c -13.09,-13.009 -27.776,-19.117 -46.216,-19.117 h -191.581 c -18.858,0 -32.89,5.925 -45.99,19.106 -13.006,13.083 -18.847,27.817 -18.847,46.261 v 410.633 h 15 V 46.25 c 0,-27.663 22.174,-50.367 49.837,-50.367 h 191.581 c 17.359,0 33.481,9.127 42.607,23.894 9.126,14.767 9.956,33.276 2.193,48.803 l -95.791,191.598 c -8.484,16.969 -25.828,27.705 -44.8,27.705 h -26.627 v 15 h 26.627 c 28.679,0 45.578,-10.293 58.309,-35.755 L 12.111,75.156 C 16.781,65.815 19.052,56.344 19.052,46.198 19.052,27.344 13.175,13.096 0,0 m 56.911,97.61 -95.79,191.836 c -21.196,42.393 -55.577,63.437 -103.128,63.437 h -76.627 v -115 h 76.627 l 95.791,-192 h -191.418 v 461 h -116 V 46.25 c 0,-31.795 11.45,-58.977 33.869,-81.529 22.419,-22.56 49.899,-33.838 81.968,-33.838 h 191.581 c 31.794,0 58.964,11.214 81.523,33.633 22.553,22.42 33.833,49.663 33.833,81.731 0,17.935 -4.077,35.058 -12.229,51.363"
             style="fill:#000000;fill-opacity:1;fill-rule:nonzero;stroke:none"
             id="path24" /></g></g></g></g></svg>
